<?xml version="1.0" encoding="utf-8"?>
<!-- Generated by IcoMoon.io -->
<!DOCTYPE svg PUBLIC "-//W3C//DTD SVG 1.1//EN" "http://www.w3.org/Graphics/SVG/1.1/DTD/svg11.dtd">
<svg version="1.1" xmlns="http://www.w3.org/2000/svg" xmlns:xlink="http://www.w3.org/1999/xlink" width="228" height="24" viewBox="0 0 228 24">
<svg id="icon-demo" width="24" height="24" viewBox="0 0 24 24" x="0" y="0">
<path fill="#444444" d="M8.016 5.016l10.969 6.984-10.969 6.984v-13.969z"></path>
</svg>
<svg id="icon-url" width="24" height="24" viewBox="0 0 24 24" x="34" y="0">
<path fill="#444444" d="M17.016 6.984q2.063 0 3.516 1.477t1.453 3.539-1.453 3.539-3.516 1.477h-4.031v-1.922h4.031q1.266 0 2.18-0.914t0.914-2.18-0.914-2.18-2.18-0.914h-4.031v-1.922h4.031zM8.016 12.984v-1.969h7.969v1.969h-7.969zM3.891 12q0 1.266 0.914 2.18t2.18 0.914h4.031v1.922h-4.031q-2.063 0-3.516-1.477t-1.453-3.539 1.453-3.539 3.516-1.477h4.031v1.922h-4.031q-1.266 0-2.18 0.914t-0.914 2.18z"></path>
</svg>
<svg id="icon-profile" width="24" height="24" viewBox="0 0 24 24" x="68" y="0">
<path fill="#444444" d="M12 14.016q2.531 0 5.273 1.102t2.742 2.883v2.016h-16.031v-2.016q0-1.781 2.742-2.883t5.273-1.102zM12 12q-1.641 0-2.813-1.172t-1.172-2.813 1.172-2.836 2.813-1.195 2.813 1.195 1.172 2.836-1.172 2.813-2.813 1.172z"></path>
</svg>
<svg id="icon-search" width="24" height="24" viewBox="0 0 24 24" x="102" y="0">
<path fill="#444444" d="M9.516 14.016q1.875 0 3.188-1.313t1.313-3.188-1.313-3.188-3.188-1.313-3.188 1.313-1.313 3.188 1.313 3.188 3.188 1.313zM15.516 14.016l4.969 4.969-1.5 1.5-4.969-4.969v-0.797l-0.281-0.281q-1.781 1.547-4.219 1.547-2.719 0-4.617-1.875t-1.898-4.594 1.898-4.617 4.617-1.898 4.594 1.898 1.875 4.617q0 2.438-1.547 4.219l0.281 0.281h0.797z"></path>
</svg>
<svg id="icon-close" width="24" height="24" viewBox="0 0 24 24" x="136" y="0">
<path fill="#444444" d="M18.984 6.422l-5.578 5.578 5.578 5.578-1.406 1.406-5.578-5.578-5.578 5.578-1.406-1.406 5.578-5.578-5.578-5.578 1.406-1.406 5.578 5.578 5.578-5.578z"></path>
</svg>
<svg id="icon-expand" width="24" height="24" viewBox="0 0 24 24" x="170" y="0">
<path fill="#444444" d="M16.594 8.578l1.406 1.406-6 6-6-6 1.406-1.406 4.594 4.594z"></path>
</svg>
</svg>
